<svg xmlns="http://www.w3.org/2000/svg" width="87.87" height="103.253" viewBox="253.553 25.53 87.87 103.253"><path opacity=".85" fill="#CCC" d="M288.053 128.055l-33.763-33.57c-.473-.468-.737-1.105-.737-1.77V61.757c0-.663.264-1.3.732-1.768l33.723-33.73c.47-.468 1.104-.73 1.77-.73s1.3.263 1.768.73l49.146 49.147c.47.47.732 1.104.732 1.768s-.264 1.3-.732 1.768l-49.106 49.106c-.976.975-2.556.977-3.533.005z"/><path fill="#030303" d="M292.133 90.77l13.605-13.575-13.605-13.653-3.78 3.78 9.875 9.873-9.876 9.728"/></svg>