<svg xmlns="http://www.w3.org/2000/svg" width="87.869" height="103.251" viewBox="48.606 12.531 87.869 103.251"><path opacity=".85" fill="#CCC" d="M101.975 115.055l33.763-33.57c.473-.468.737-1.105.737-1.77V48.757c0-.663-.264-1.3-.73-1.768L102.02 13.262c-.47-.47-1.104-.73-1.77-.73s-1.298.262-1.768.73L49.338 62.408c-.47.47-.732 1.104-.732 1.768s.265 1.3.732 1.768l49.106 49.107c.975.975 2.555.977 3.53.005z"/><path fill="#C03" d="M101.677 73.922L91.8 64.195l9.877-9.874-3.78-3.778L84.29 64.195 97.897 77.77"/></svg>