<svg xmlns="http://www.w3.org/2000/svg" width="87.87" height="103.252" viewBox="253.553 25.531 87.87 103.252"><path opacity=".85" fill="#CCC" d="M288.053 128.055l-33.763-33.57c-.472-.468-.737-1.106-.737-1.77V61.756c0-.663.264-1.3.732-1.768l33.723-33.728c.47-.47 1.105-.732 1.77-.732s1.298.263 1.767.732l49.146 49.146c.47.47.733 1.104.733 1.768s-.264 1.3-.732 1.768l-49.106 49.106c-.974.975-2.554.977-3.53.005z"/><path fill="#C03" d="M292.133 90.77l13.605-13.575-13.605-13.653-3.78 3.78 9.875 9.873-9.876 9.728"/></svg>