<svg xmlns="http://www.w3.org/2000/svg" height="130.79" width="154.7" xmlns:i="&amp;ns_ai;"><g transform="translate(-357.06 -500.23)"><switch transform="translate(357.066 500.23)"><g stroke-linejoin="round" stroke="#c41230" stroke-linecap="round" stroke-miterlimit="10" i:extraneous="self" stroke-width="2" fill="none"><path class="animationPolyOne" opacity=".35" d="M77.38 113.8l60.35-60.348-41.257-41.49H58.43L16.984 53.405z"/><path class="animationPolyTwo" opacity=".15" d="M77.38 122.55l69.09-69.086L99.24 5.967H55.69L8.24 53.41z"/><path class="animationPolyThree" opacity=".05" d="M77.384 129.8l76.326-76.326L101.53 1H53.42L1 53.414z"/></g></switch><switch transform="translate(382.795 517.41)"><g i:extraneous="self"><path fill="#c41230" d="M102.53 34.5L68.956.737C68.486.265 67.848 0 67.183 0H36.226c-.663 0-1.3.263-1.768.732L.732 34.456C.262 34.926 0 35.56 0 36.224c0 .664.263 1.3.732 1.768l49.145 49.145c.488.488 1.128.732 1.768.732.64 0 1.28-.245 1.767-.733L102.52 38.03c.974-.974.976-2.553.004-3.53z"/><path fill="#FFF" d="M39.09 43.725l5.23 1.685-4.797 6.005M42.124 27.094l-3.69 11.412.664.21.054-.17c.355-.328.924-.454 1.484-.273.62.2 1.03.71 1.067 1.242l.156.05c.336-.412.96-.59 1.574-.392.613.197 1.018.705 1.05 1.237l.158.05c.337-.413.96-.59 1.575-.393.557.18.94.615 1.034 1.09l-.044.14.618.196 3.68-11.38c.57-1.77-.444-3.678-2.26-4.263l-2.8-.9c-1.816-.585-3.75.375-4.32 2.145z"/><path fill="#FFF" d="M39.582 51.238h24.25v2.15h-24.25z"/></g></switch></g></svg>