<svg xmlns="http://www.w3.org/2000/svg" height="130.82" width="154.7" xmlns:i="&amp;ns_ai;"><g transform="translate(-342.636 -504.098)"><switch transform="translate(342.644 504.105)"><g stroke-linejoin="round" stroke="#c41230" stroke-linecap="round" stroke-miterlimit="10" i:extraneous="self" stroke-width="2" fill="none"><path opacity=".35" d="M16.984 77.396L77.38 17l60.35 60.35-41.257 41.49H58.43z"/><path opacity=".15" d="M8.242 77.39l69.14-69.14 69.088 69.087-47.23 47.493H55.69z"/><path opacity=".05" d="M1 77.387L77.384 1l76.326 76.327-52.18 52.473H53.42z"/></g></switch><switch transform="translate(368.016 529.856)"><g i:extraneous="self"><path fill="#c41230" d="M102.52 49.84L53.412.732c-.977-.976-2.56-.976-3.535 0L.732 49.878c-.47.47-.733 1.104-.733 1.768 0 .664.263 1.3.732 1.768l33.726 33.723c.47.47 1.104.732 1.767.732h30.957c.665 0 1.304-.266 1.773-.738L102.53 53.37c.97-.977.97-2.556-.006-3.53z"/><path fill="#FFF" d="M40.606 36.927h25.372v-2h-25.37c-2.674 0-4.85 2.174-4.85 4.847v.963c0 1.546.742 2.91 1.873 3.798-1.13.89-1.872 2.253-1.872 3.8v.96c0 1.61.798 3.03 2.01 3.913-1.212.88-2.01 2.3-2.01 3.91v.962c0 2.673 2.176 4.85 4.85 4.85h25.37v-2.002h-25.37c-1.57 0-2.848-1.278-2.848-2.847v-.962c0-1.57 1.278-2.847 2.847-2.847H51.61v2.78l2.48-2.464 2.484 2.463v-2.78h9.404v-2.127h-9.404V47.29H51.61v4.853H40.607c-1.57 0-2.847-1.277-2.847-2.848v-.96c0-1.404 1.022-2.565 2.36-2.8.16.018.32.05.487.05h3.462v3.23l2.48-2.464 2.48 2.466v-3.23H65.98v-2.1H49.033v-4.43H44.07v4.43h-3.46c-.168 0-.327.032-.49.05-1.336-.234-2.358-1.396-2.358-2.8v-.96c0-1.57 1.278-2.85 2.847-2.85z"/></g></switch></g></svg>